<?xml version="1.0" encoding="UTF-8" standalone="no"?>
<!-- Created with Inkscape (http://www.inkscape.org/) -->

<svg
   xmlns:dc="http://purl.org/dc/elements/1.1/"
   xmlns:cc="http://creativecommons.org/ns#"
   xmlns:rdf="http://www.w3.org/1999/02/22-rdf-syntax-ns#"
   xmlns:svg="http://www.w3.org/2000/svg"
   xmlns="http://www.w3.org/2000/svg"
   xmlns:xlink="http://www.w3.org/1999/xlink"
   xmlns:sodipodi="http://sodipodi.sourceforge.net/DTD/sodipodi-0.dtd"
   xmlns:inkscape="http://www.inkscape.org/namespaces/inkscape"
   width="400"
   height="400"
   id="svg2"
   version="1.1"
   inkscape:version="0.48.0 r9654"
   sodipodi:docname="sprite.svg"
   inkscape:export-filename="/home/devseed/tilestream/modules/tilestream/client/images/sprite.png"
   inkscape:export-xdpi="90"
   inkscape:export-ydpi="90">
  <defs
     id="defs4">
    <linearGradient
       id="linearGradient4146">
      <stop
         style="stop-color:#000000;stop-opacity:0.50196081"
         offset="0"
         id="stop4148" />
      <stop
         id="stop4154"
         offset="0.5"
         style="stop-color:#000000;stop-opacity:0.50196081" />
      <stop
         style="stop-color:#000000;stop-opacity:0;"
         offset="1"
         id="stop4150" />
    </linearGradient>
    <linearGradient
       inkscape:collect="always"
       id="linearGradient4132">
      <stop
         style="stop-color:#ffffff;stop-opacity:0.50196081"
         offset="0"
         id="stop4134" />
      <stop
         style="stop-color:#c0c0c0;stop-opacity:0;"
         offset="1"
         id="stop4136" />
    </linearGradient>
    <radialGradient
       inkscape:collect="always"
       xlink:href="#linearGradient4132"
       id="radialGradient4138"
       cx="50"
       cy="654.36218"
       fx="50"
       fy="654.36218"
       r="32"
       gradientTransform="matrix(-1.4062499,-2.01128e-6,-2.149519e-6,1.5000009,120.3139,-271.18156)"
       gradientUnits="userSpaceOnUse" />
    <radialGradient
       inkscape:collect="always"
       xlink:href="#linearGradient4132"
       id="radialGradient4142"
       gradientUnits="userSpaceOnUse"
       gradientTransform="matrix(-1.4062499,-2.01128e-6,-2.149519e-6,1.5000009,120.3139,-239.18156)"
       cx="50"
       cy="654.36218"
       fx="50"
       fy="654.36218"
       r="32" />
    <radialGradient
       inkscape:collect="always"
       xlink:href="#linearGradient4146"
       id="radialGradient4152"
       cx="50"
       cy="62.5"
       fx="50"
       fy="62.5"
       r="45"
       gradientTransform="matrix(1,0,0,0.83333333,0,10.416667)"
       gradientUnits="userSpaceOnUse" />
    <radialGradient
       inkscape:collect="always"
       xlink:href="#linearGradient4146"
       id="radialGradient4201"
       gradientUnits="userSpaceOnUse"
       gradientTransform="matrix(1,0,0,0.83333333,0,10.416667)"
       cx="50"
       cy="62.5"
       fx="50"
       fy="62.5"
       r="45" />
    <radialGradient
       inkscape:collect="always"
       xlink:href="#linearGradient4132"
       id="radialGradient4203"
       gradientUnits="userSpaceOnUse"
       gradientTransform="matrix(-1.4062499,-2.01128e-6,-2.149519e-6,1.5000009,120.3139,-271.18156)"
       cx="50"
       cy="654.36218"
       fx="50"
       fy="654.36218"
       r="32" />
    <radialGradient
       inkscape:collect="always"
       xlink:href="#linearGradient4132"
       id="radialGradient4205"
       gradientUnits="userSpaceOnUse"
       gradientTransform="matrix(-1.4062499,-2.01128e-6,-2.149519e-6,1.5000009,120.3139,-239.18156)"
       cx="50"
       cy="654.36218"
       fx="50"
       fy="654.36218"
       r="32" />
  </defs>
  <sodipodi:namedview
     id="base"
     pagecolor="#ffffff"
     bordercolor="#666666"
     borderopacity="1.0"
     inkscape:pageopacity="0.0"
     inkscape:pageshadow="2"
     inkscape:zoom="1"
     inkscape:cx="120.21871"
     inkscape:cy="205.19473"
     inkscape:document-units="px"
     inkscape:current-layer="layer1"
     showgrid="false"
     showguides="true"
     inkscape:guide-bbox="true"
     inkscape:snap-page="false"
     inkscape:object-nodes="false"
     inkscape:snap-bbox="true"
     inkscape:bbox-nodes="true"
     inkscape:snap-nodes="false">
    <inkscape:grid
       type="xygrid"
       id="grid2985"
       empspacing="5"
       visible="true"
       enabled="true"
       snapvisiblegridlinesonly="true" />
  </sodipodi:namedview>
  <metadata
     id="metadata7">
    <rdf:RDF>
      <cc:Work
         rdf:about="">
        <dc:format>image/svg+xml</dc:format>
        <dc:type
           rdf:resource="http://purl.org/dc/dcmitype/StillImage" />
        <dc:title></dc:title>
      </cc:Work>
    </rdf:RDF>
  </metadata>
  <g
     inkscape:groupmode="layer"
     id="layer2"
     inkscape:label="Root"
     style="display:none"
     sodipodi:insensitive="true">
    <rect
       style="color:#000000;fill:#000000;fill-opacity:0.50196078;fill-rule:nonzero;stroke:none;stroke-width:0.99999994;marker:none;visibility:visible;display:inline;overflow:visible;enable-background:accumulate"
       id="rect4208"
       width="400"
       height="400"
       x="0"
       y="0" />
  </g>
  <g
     inkscape:label="Sprite"
     inkscape:groupmode="layer"
     id="layer1"
     transform="translate(0,-652.36217)"
     style="display:inline"
     sodipodi:insensitive="true">
    <path
       inkscape:connector-curvature="0"
       id="path3833"
       d="m 113.66878,675.86218 c 0,0 -3.33756,2.66874 -3.33756,4.66876 0,2.66666 1.33964,2.66873 2.00624,4.66874 0.66668,2 -0.67287,2.67083 -2.00624,3.33749 l -3.33744,1.33126 1.33122,1.33125 -3.99377,1.9875 1.33123,1.35 -2.66246,2.66249 5.325,1.33126 1.10622,-2.23126 -0.43122,2.8875 5.66245,0.675 0.33755,-2.6625 0.33746,2.6625 5.66254,-0.675 -0.675,-2.6625 1.35,2.6625 5.325,-1.33124 -3.675,-3.99376 1.66877,-0.3375 -2.325,-2.6625 1.66869,-0.3375 -2.00623,-1.98749 c 0,0 0.23649,-1.2091 -2.00623,-4.01251 -2.66665,-3.33332 -6.00001,-2.66665 -6.00001,-5.99999 0,-1.33333 2.00624,-2.6625 2.00624,-2.6625 l -2.66245,0 z m -1.16255,2.5125 c -0.16877,0.25314 -0.50623,0.9375 -0.50623,2.2875 0,1.8 3,1.8 3,5.4 0,2.99999 -2.4,4.19999 -2.4,4.19999 0,0 1.5,-1.8 1.5,-4.19999 0,-3 -2.7,-3 -2.7,-5.4 0,-1.04254 0.86854,-2.03184 1.10623,-2.2875 z M 115,683.06218 c 0,0 3,1.2 3,4.79999 0,3 -2.4,4.8 -2.4,4.8 0,0 1.2,-2.4 1.2,-4.8 0,-2.99999 -1.8,-4.79999 -1.8,-4.79999 z"
       style="opacity:0.75;color:#000000;fill:#000000;fill-opacity:1;fill-rule:nonzero;stroke:#000000;stroke-width:1.5;stroke-linecap:butt;stroke-linejoin:bevel;stroke-miterlimit:4;stroke-opacity:1;stroke-dasharray:none;stroke-dashoffset:0;marker:none;visibility:visible;display:inline;overflow:visible;enable-background:accumulate" />
    <g
       id="g4194"
       transform="translate(0,20)">
      <path
         transform="matrix(1,0,0,0.93333333,0,659.02884)"
         d="m 95,62.5 a 45,37.5 0 1 1 -90,0 45,37.5 0 1 1 90,0 z"
         sodipodi:ry="37.5"
         sodipodi:rx="45"
         sodipodi:cy="62.5"
         sodipodi:cx="50"
         id="path4144"
         style="color:#000000;fill:url(#radialGradient4201);fill-opacity:1;fill-rule:nonzero;stroke:none;stroke-width:0.99999994;marker:none;visibility:visible;display:inline;overflow:visible;enable-background:accumulate"
         sodipodi:type="arc" />
      <path
         inkscape:connector-curvature="0"
         id="path2987"
         d="m 50,662.36217 -32,24 0,32 32,24 32,-24 0,-32 -32,-24 z"
         style="color:#000000;fill:#ffffff;fill-opacity:0.25098039;fill-rule:nonzero;stroke:none;stroke-width:0.99999994;marker:none;visibility:visible;display:inline;overflow:visible;enable-background:accumulate" />
      <path
         inkscape:connector-curvature="0"
         id="path3767"
         d="m 50,675.11217 -2.34375,1.75 2.34375,1.75 2.34375,-1.75 -2.34375,-1.75 z m -3.34375,2.5 -2.3125,1.75 2.3125,1.75 2.34375,-1.75 -2.34375,-1.75 z m 6.6875,0 -2.34375,1.75 2.34375,1.75 2.3125,-1.75 -2.3125,-1.75 z m -10,2.5 -2.34375,1.75 2.34375,1.75 2.3125,-1.75 -2.3125,-1.75 z m 6.65625,0 -2.34375,1.75 2.34375,1.75 2.34375,-1.75 -2.34375,-1.75 z m 6.65625,0 -2.3125,1.75 2.3125,1.75 2.34375,-1.75 -2.34375,-1.75 z m -16.65625,2.5 -2.34375,1.75 2.34375,1.75 2.34375,-1.75 -2.34375,-1.75 z m 6.65625,0 -2.3125,1.75 2.3125,1.75 2.34375,-1.75 -2.34375,-1.75 z m 6.6875,0 -2.34375,1.75 2.34375,1.75 2.3125,-1.75 -2.3125,-1.75 z m 6.65625,0 -2.34375,1.75 2.34375,1.75 2.34375,-1.75 -2.34375,-1.75 z m -23.34375,2.5 -2.3125,1.75 2.3125,1.75 2.34375,-1.75 -2.34375,-1.75 z m 6.6875,0 -2.34375,1.75 2.34375,1.75 2.3125,-1.75 -2.3125,-1.75 z m 6.65625,0 -2.34375,1.75 2.34375,1.75 2.34375,-1.75 -2.34375,-1.75 z m 6.65625,0 -2.3125,1.75 2.3125,1.75 2.34375,-1.75 -2.34375,-1.75 z m 6.6875,0 -2.34375,1.75 2.34375,1.75 2.3125,-1.75 -2.3125,-1.75 z m -30,2.5 -2.34375,1.75 2.34375,1.75 2.3125,-1.75 -2.3125,-1.75 z m 6.65625,0 -2.34375,1.75 2.34375,1.75 2.34375,-1.75 -2.34375,-1.75 z m 6.65625,0 -2.3125,1.75 2.3125,1.75 2.34375,-1.75 -2.34375,-1.75 z m 6.6875,0 -2.34375,1.75 2.34375,1.75 2.3125,-1.75 -2.3125,-1.75 z m 6.65625,0 -2.34375,1.75 2.34375,1.75 2.34375,-1.75 -2.34375,-1.75 z m 6.65625,0 -2.3125,1.75 2.3125,1.75 2.34375,-1.75 -2.34375,-1.75 z m -36.65625,2.5 -2.34375,1.75 2.34375,1.75 2.34375,-1.75 -2.34375,-1.75 z m 6.65625,0 -2.3125,1.75 2.3125,1.75 2.34375,-1.75 -2.34375,-1.75 z m 6.6875,0 -2.34375,1.75 2.34375,1.75 2.3125,-1.75 -2.3125,-1.75 z m 6.65625,0 -2.34375,1.75 2.34375,1.75 2.34375,-1.75 -2.34375,-1.75 z m 6.65625,0 -2.3125,1.75 2.3125,1.75 2.34375,-1.75 -2.34375,-1.75 z m 6.6875,0 -2.34375,1.75 2.34375,1.75 2.3125,-1.75 -2.3125,-1.75 z m 6.65625,0 -2.34375,1.75 2.34375,1.75 2.34375,-1.75 -2.34375,-1.75 z m -36.65625,2.5 -2.34375,1.75 2.34375,1.75 2.3125,-1.75 -2.3125,-1.75 z m 6.65625,0 -2.34375,1.75 2.34375,1.75 2.34375,-1.75 -2.34375,-1.75 z m 6.65625,0 -2.3125,1.75 2.3125,1.75 2.34375,-1.75 -2.34375,-1.75 z m 6.6875,0 -2.34375,1.75 2.34375,1.75 2.3125,-1.75 -2.3125,-1.75 z m 6.65625,0 -2.34375,1.75 2.34375,1.75 2.34375,-1.75 -2.34375,-1.75 z m 6.65625,0 -2.3125,1.75 2.3125,1.75 2.34375,-1.75 -2.34375,-1.75 z m -30,2.5 -2.3125,1.75 2.3125,1.75 2.34375,-1.75 -2.34375,-1.75 z m 6.6875,0 -2.34375,1.75 2.34375,1.75 2.3125,-1.75 -2.3125,-1.75 z m 6.65625,0 -2.34375,1.75 2.34375,1.75 2.34375,-1.75 -2.34375,-1.75 z m 6.65625,0 -2.3125,1.75 2.3125,1.75 2.34375,-1.75 -2.34375,-1.75 z m 6.6875,0 -2.34375,1.75 2.34375,1.75 2.3125,-1.75 -2.3125,-1.75 z m -23.34375,2.5 -2.34375,1.75 2.34375,1.75 2.34375,-1.75 -2.34375,-1.75 z m 6.65625,0 -2.3125,1.75 2.3125,1.75 2.34375,-1.75 -2.34375,-1.75 z m 6.6875,0 -2.34375,1.75 2.34375,1.75 2.3125,-1.75 -2.3125,-1.75 z m 6.65625,0 -2.34375,1.75 2.34375,1.75 2.34375,-1.75 -2.34375,-1.75 z m -26.65625,2 -2.34375,1.75 2.34375,1.75 2.3125,-1.75 -2.3125,-1.75 z m 33.3125,0 -2.3125,1.75 2.3125,1.75 2.34375,-1.75 -2.34375,-1.75 z m -23.3125,0.5 -2.34375,1.75 2.34375,1.75 2.3125,-1.75 -2.3125,-1.75 z m 6.65625,0 -2.34375,1.75 2.34375,1.75 2.34375,-1.75 -2.34375,-1.75 z m 6.65625,0 -2.3125,1.75 2.3125,1.75 2.34375,-1.75 -2.34375,-1.75 z m -26.65625,2 -2.34375,1.75 2.34375,1.75 2.34375,-1.75 -2.34375,-1.75 z m 6.65625,0 -2.3125,1.75 2.3125,1.75 2.34375,-1.75 -2.34375,-1.75 z m 26.6875,0 -2.34375,1.75 2.34375,1.75 2.3125,-1.75 -2.3125,-1.75 z m 6.65625,0 -2.34375,1.75 2.34375,1.75 2.34375,-1.75 -2.34375,-1.75 z m -23.34375,0.5 -2.3125,1.75 2.3125,1.75 2.34375,-1.75 -2.34375,-1.75 z m 6.6875,0 -2.34375,1.75 2.34375,1.75 2.3125,-1.75 -2.3125,-1.75 z m -20,2 -2.34375,1.75 2.34375,1.75 2.3125,-1.75 -2.3125,-1.75 z m 6.65625,0 -2.34375,1.75 2.34375,1.75 2.34375,-1.75 -2.34375,-1.75 z m 20,0 -2.34375,1.75 2.34375,1.75 2.34375,-1.75 -2.34375,-1.75 z m 6.65625,0 -2.3125,1.75 2.3125,1.75 2.34375,-1.75 -2.34375,-1.75 z m -16.65625,0.5 -2.34375,1.75 2.34375,1.75 2.34375,-1.75 -2.34375,-1.75 z m -13.34375,2 -2.3125,1.75 2.3125,1.75 2.34375,-1.75 -2.34375,-1.75 z m 6.6875,0 -2.34375,1.75 2.34375,1.75 2.3125,-1.75 -2.3125,-1.75 z m 13.3125,0 -2.3125,1.75 2.3125,1.75 2.34375,-1.75 -2.34375,-1.75 z m 6.6875,0 -2.34375,1.75 2.34375,1.75 2.3125,-1.75 -2.3125,-1.75 z m -23.34375,2.5 -2.34375,1.75 2.34375,1.75 2.34375,-1.75 -2.34375,-1.75 z m 6.65625,0 -2.3125,1.75 2.3125,1.75 2.34375,-1.75 -2.34375,-1.75 z m 6.6875,0 -2.34375,1.75 2.34375,1.75 2.3125,-1.75 -2.3125,-1.75 z m 6.65625,0 -2.34375,1.75 2.34375,1.75 2.34375,-1.75 -2.34375,-1.75 z m -16.65625,2.5 -2.34375,1.75 2.34375,1.75 2.3125,-1.75 -2.3125,-1.75 z m 6.65625,0 -2.34375,1.75 2.34375,1.75 2.34375,-1.75 -2.34375,-1.75 z m 6.65625,0 -2.3125,1.75 2.3125,1.75 2.34375,-1.75 -2.34375,-1.75 z m -23.3125,0.5 -2.34375,1.75 2.34375,1.75 2.3125,-1.75 -2.3125,-1.75 z m 33.3125,0 -2.3125,1.75 2.3125,1.75 2.34375,-1.75 -2.34375,-1.75 z m -20,2 -2.3125,1.75 2.3125,1.75 2.34375,-1.75 -2.34375,-1.75 z m 6.6875,0 -2.34375,1.75 2.34375,1.75 2.3125,-1.75 -2.3125,-1.75 z m -23.34375,0.5 -2.34375,1.75 2.34375,1.75 2.34375,-1.75 -2.34375,-1.75 z m 6.65625,0 -2.3125,1.75 2.3125,1.75 2.34375,-1.75 -2.34375,-1.75 z m 26.6875,0 -2.34375,1.75 2.34375,1.75 2.3125,-1.75 -2.3125,-1.75 z m 6.65625,0 -2.34375,1.75 2.34375,1.75 2.34375,-1.75 -2.34375,-1.75 z m -20,2 -2.34375,1.75 2.34375,1.75 2.34375,-1.75 -2.34375,-1.75 z m -16.65625,0.5 -2.34375,1.75 2.34375,1.75 2.3125,-1.75 -2.3125,-1.75 z m 6.65625,0 -2.34375,1.75 2.34375,1.75 2.34375,-1.75 -2.34375,-1.75 z m 20,0 -2.34375,1.75 2.34375,1.75 2.34375,-1.75 -2.34375,-1.75 z m 6.65625,0 -2.3125,1.75 2.3125,1.75 2.34375,-1.75 -2.34375,-1.75 z m -30,2.5 -2.3125,1.75 2.3125,1.75 2.34375,-1.75 -2.34375,-1.75 z m 6.6875,0 -2.34375,1.75 2.34375,1.75 2.3125,-1.75 -2.3125,-1.75 z m 13.3125,0 -2.3125,1.75 2.3125,1.75 2.34375,-1.75 -2.34375,-1.75 z m 6.6875,0 -2.34375,1.75 2.34375,1.75 2.3125,-1.75 -2.3125,-1.75 z m -23.34375,2.5 -2.34375,1.75 2.34375,1.75 2.34375,-1.75 -2.34375,-1.75 z m 6.65625,0 -2.3125,1.75 2.3125,1.75 2.34375,-1.75 -2.34375,-1.75 z m 6.6875,0 -2.34375,1.75 2.34375,1.75 2.3125,-1.75 -2.3125,-1.75 z m 6.65625,0 -2.34375,1.75 2.34375,1.75 2.34375,-1.75 -2.34375,-1.75 z m -16.65625,2.5 -2.34375,1.75 2.34375,1.75 2.3125,-1.75 -2.3125,-1.75 z m 6.65625,0 -2.34375,1.75 2.34375,1.75 2.34375,-1.75 -2.34375,-1.75 z m 6.65625,0 -2.3125,1.75 2.3125,1.75 2.34375,-1.75 -2.34375,-1.75 z m -10,2.5 -2.3125,1.75 2.3125,1.75 2.34375,-1.75 -2.34375,-1.75 z m 6.6875,0 -2.34375,1.75 2.34375,1.75 2.3125,-1.75 -2.3125,-1.75 z m -3.34375,2.5 -2.34375,1.75 2.34375,1.75 2.34375,-1.75 -2.34375,-1.75 z"
         style="color:#000000;fill:#000000;fill-opacity:0.50196078;fill-rule:nonzero;stroke:none;stroke-width:0.99999994;marker:none;visibility:visible;display:inline;overflow:visible;enable-background:accumulate" />
      <path
         inkscape:connector-curvature="0"
         style="color:#000000;fill:url(#radialGradient4203);fill-opacity:1;fill-rule:nonzero;stroke:none;stroke-width:0.99999994;marker:none;visibility:visible;display:inline;overflow:visible;enable-background:accumulate"
         d="m 50,710.36217 -32,-24 32,-24 32,24 -32,24 z"
         id="path4130" />
      <path
         id="path4140"
         d="m 50,742.36217 -32,-24 32,-24 32,24 -32,24 z"
         style="color:#000000;fill:url(#radialGradient4205);fill-opacity:1;fill-rule:nonzero;stroke:none;stroke-width:0.99999994;marker:none;visibility:visible;display:inline;overflow:visible;enable-background:accumulate"
         inkscape:connector-curvature="0" />
    </g>
    <path
       style="color:#000000;fill:#ffffff;fill-opacity:1;fill-rule:nonzero;stroke:none;stroke-width:0.99999994;marker:none;visibility:visible;display:inline;overflow:visible;enable-background:accumulate"
       d="m 113.66878,675.36218 c 0,0 -3.33756,2.66874 -3.33756,4.66876 0,2.66666 1.33964,2.66873 2.00624,4.66874 0.66668,2 -0.67287,2.67083 -2.00624,3.33749 l -3.33744,1.33126 1.33122,1.33125 -3.99377,1.9875 1.33123,1.35 -2.66246,2.66249 5.325,1.33126 1.10622,-2.23126 -0.43122,2.8875 5.66245,0.675 0.33755,-2.6625 0.33746,2.6625 5.66254,-0.675 -0.675,-2.6625 1.35,2.6625 5.325,-1.33124 -3.675,-3.99376 1.66877,-0.3375 -2.325,-2.6625 1.66869,-0.3375 -2.00623,-1.98749 c 0,0 0.23649,-1.2091 -2.00623,-4.01251 -2.66665,-3.33332 -6.00001,-2.66665 -6.00001,-5.99999 0,-1.33333 2.00624,-2.6625 2.00624,-2.6625 l -2.66245,0 z m -1.16255,2.5125 c -0.16877,0.25314 -0.50623,0.9375 -0.50623,2.2875 0,1.8 3,1.8 3,5.4 0,2.99999 -2.4,4.19999 -2.4,4.19999 0,0 1.5,-1.8 1.5,-4.19999 0,-3 -2.7,-3 -2.7,-5.4 0,-1.04254 0.86854,-2.03184 1.10623,-2.2875 z M 115,682.56218 c 0,0 3,1.2 3,4.79999 0,3 -2.4,4.8 -2.4,4.8 0,0 1.2,-2.4 1.2,-4.8 0,-2.99999 -1.8,-4.79999 -1.8,-4.79999 z"
       id="path5994"
       inkscape:connector-curvature="0" />
    <text
       sodipodi:linespacing="110%"
       id="text3812"
       y="693.36218"
       x="132.5"
       style="font-size:16px;font-style:normal;font-variant:normal;font-weight:bold;font-stretch:normal;text-indent:0;text-align:start;text-decoration:none;line-height:110.00000238%;letter-spacing:1.5px;word-spacing:normal;text-transform:none;direction:ltr;block-progression:tb;writing-mode:lr-tb;text-anchor:start;baseline-shift:baseline;opacity:0.75;color:#000000;fill:#000000;fill-opacity:1;fill-rule:nonzero;stroke:#000000;stroke-width:1.5;stroke-linecap:butt;stroke-linejoin:bevel;stroke-miterlimit:4;stroke-opacity:1;stroke-dasharray:none;stroke-dashoffset:0;marker:none;visibility:visible;display:inline;overflow:visible;enable-background:accumulate;font-family:PetitaBold;-inkscape-font-specification:PetitaBold Bold"
       xml:space="preserve"><tspan
         dx="0 0 0 0 0 0 0 -0.4194304 -0.4194304 -0.4194304"
         y="693.36218"
         x="132.5"
         id="tspan3814"
         sodipodi:role="line">TILESTREAM</tspan></text>
    <text
       xml:space="preserve"
       style="font-size:16px;font-style:normal;font-variant:normal;font-weight:bold;font-stretch:normal;text-indent:0;text-align:start;text-decoration:none;line-height:110.00000238%;letter-spacing:1.5px;word-spacing:normal;text-transform:none;direction:ltr;block-progression:tb;writing-mode:lr-tb;text-anchor:start;baseline-shift:baseline;color:#000000;fill:#ffffff;fill-opacity:1;fill-rule:nonzero;stroke:none;stroke-width:2;marker:none;visibility:visible;display:inline;overflow:visible;enable-background:accumulate;font-family:PetitaBold;-inkscape-font-specification:PetitaBold Bold"
       x="132.5"
       y="692.86218"
       id="text3808"
       sodipodi:linespacing="110%"><tspan
         sodipodi:role="line"
         id="tspan3810"
         x="132.5"
         y="692.86218"
         dx="0 0 0 0 0 0 0 -0.4194304 -0.4194304 -0.4194304">TILESTREAM</tspan></text>
  </g>
  <path
     style="color:#000000;fill:#ffffff;fill-opacity:0.75294118;fill-rule:nonzero;stroke:none;stroke-width:0.99999994;marker:none;visibility:visible;display:inline;overflow:visible;enable-background:accumulate"
     d="m 9.5,6 -1,1 2,2 -4.5,0 0,2 4.5,0 -2,2 1,1 4,-4 z"
     id="path4212"
     inkscape:connector-curvature="0"
     sodipodi:nodetypes="cccccccccc" />
  <path
     style="color:#000000;fill:#ffffff;fill-opacity:0.75294118;fill-rule:nonzero;stroke:none;stroke-width:0.99999994;marker:none;visibility:visible;display:inline;overflow:visible;enable-background:accumulate"
     d="m 45,4 0,12 10,0 0,-9 -2.5,0 0,-3 -7.5,0 z m 8,0 0,2 2,0 -2,-2 z m -4,3 2,0 0,4 2,0 -3,3 -3,-3 2,0 0,-4 z"
     id="path4219"
     inkscape:connector-curvature="0" />
  <path
     style="color:#000000;fill:#ffffff;fill-opacity:0.75294118;fill-rule:nonzero;stroke:none;stroke-width:0.99999994;marker:none;visibility:visible;display:inline;overflow:visible;enable-background:accumulate"
     d="M 29 4 C 26.23 4 24 6.23 24 9 L 24 11 C 24 13.77 26.23 16 29 16 L 31 16 C 33.77 16 36 13.77 36 11 L 36 9 C 36 6.23 33.77 4 31 4 L 29 4 z M 29.5 6 L 30.5 6 C 31.054 6 31.5 6.446 31.5 7 C 31.5 7.554 31.054 8 30.5 8 L 29.5 8 C 28.946 8 28.5 7.554 28.5 7 C 28.5 6.446 28.946 6 29.5 6 z M 29 9 L 31 9 L 31 13 L 32 14 L 28 14 L 29 13 L 29 10 L 28 10 L 29 9 z "
     id="rect4232" />
  <path
     style="color:#000000;fill:#ffffff;fill-opacity:0.75294118;fill-rule:nonzero;stroke:none;stroke-width:0.99999994;marker:none;visibility:visible;display:inline;overflow:visible;enable-background:accumulate"
     d="M 66.5,5 65,6.5 68.5,10 65,13.5 66.5,15 70,11.5 73.5,15 75,13.5 71.5,10 75,6.5 73.5,5 70,8.5 z"
     id="path3007"
     inkscape:connector-curvature="0"
     sodipodi:nodetypes="ccccccccccccc" />
</svg>
