<?xml version="1.0" encoding="UTF-8" standalone="no"?>
<!-- Created with Inkscape (http://www.inkscape.org/) -->

<svg
   xmlns:dc="http://purl.org/dc/elements/1.1/"
   xmlns:cc="http://creativecommons.org/ns#"
   xmlns:rdf="http://www.w3.org/1999/02/22-rdf-syntax-ns#"
   xmlns:svg="http://www.w3.org/2000/svg"
   xmlns="http://www.w3.org/2000/svg"
   xmlns:xlink="http://www.w3.org/1999/xlink"
   xmlns:sodipodi="http://sodipodi.sourceforge.net/DTD/sodipodi-0.dtd"
   xmlns:inkscape="http://www.inkscape.org/namespaces/inkscape"
   width="400"
   height="400"
   id="svg2"
   version="1.1"
   inkscape:version="0.48.0 r9654"
   sodipodi:docname="sprite.svg"
   inkscape:export-filename="/home/devseed/pro/modules/tilestream/client/images/sprite.png"
   inkscape:export-xdpi="90"
   inkscape:export-ydpi="90">
  <defs
     id="defs4">
    <linearGradient
       id="linearGradient4146">
      <stop
         style="stop-color:#000000;stop-opacity:0.50196081"
         offset="0"
         id="stop4148" />
      <stop
         id="stop4154"
         offset="0.5"
         style="stop-color:#000000;stop-opacity:0.50196081" />
      <stop
         style="stop-color:#000000;stop-opacity:0;"
         offset="1"
         id="stop4150" />
    </linearGradient>
    <linearGradient
       inkscape:collect="always"
       id="linearGradient4132">
      <stop
         style="stop-color:#ffffff;stop-opacity:0.50196081"
         offset="0"
         id="stop4134" />
      <stop
         style="stop-color:#c0c0c0;stop-opacity:0;"
         offset="1"
         id="stop4136" />
    </linearGradient>
    <radialGradient
       inkscape:collect="always"
       xlink:href="#linearGradient4132"
       id="radialGradient4138"
       cx="50"
       cy="654.36218"
       fx="50"
       fy="654.36218"
       r="32"
       gradientTransform="matrix(-1.4062499,-2.01128e-6,-2.149519e-6,1.5000009,120.3139,-271.18156)"
       gradientUnits="userSpaceOnUse" />
    <radialGradient
       inkscape:collect="always"
       xlink:href="#linearGradient4132"
       id="radialGradient4142"
       gradientUnits="userSpaceOnUse"
       gradientTransform="matrix(-1.4062499,-2.01128e-6,-2.149519e-6,1.5000009,120.3139,-239.18156)"
       cx="50"
       cy="654.36218"
       fx="50"
       fy="654.36218"
       r="32" />
    <radialGradient
       inkscape:collect="always"
       xlink:href="#linearGradient4146"
       id="radialGradient4152"
       cx="50"
       cy="62.5"
       fx="50"
       fy="62.5"
       r="45"
       gradientTransform="matrix(1,0,0,0.83333333,0,10.416667)"
       gradientUnits="userSpaceOnUse" />
    <radialGradient
       inkscape:collect="always"
       xlink:href="#linearGradient4146"
       id="radialGradient4201"
       gradientUnits="userSpaceOnUse"
       gradientTransform="matrix(1,0,0,0.83333333,0,10.416667)"
       cx="50"
       cy="62.5"
       fx="50"
       fy="62.5"
       r="45" />
    <radialGradient
       inkscape:collect="always"
       xlink:href="#linearGradient4132"
       id="radialGradient4203"
       gradientUnits="userSpaceOnUse"
       gradientTransform="matrix(-1.4062499,-2.01128e-6,-2.149519e-6,1.5000009,120.3139,-271.18156)"
       cx="50"
       cy="654.36218"
       fx="50"
       fy="654.36218"
       r="32" />
    <radialGradient
       inkscape:collect="always"
       xlink:href="#linearGradient4132"
       id="radialGradient4205"
       gradientUnits="userSpaceOnUse"
       gradientTransform="matrix(-1.4062499,-2.01128e-6,-2.149519e-6,1.5000009,120.3139,-239.18156)"
       cx="50"
       cy="654.36218"
       fx="50"
       fy="654.36218"
       r="32" />
  </defs>
  <sodipodi:namedview
     id="base"
     pagecolor="#ffffff"
     bordercolor="#666666"
     borderopacity="1.0"
     inkscape:pageopacity="0.0"
     inkscape:pageshadow="2"
     inkscape:zoom="1"
     inkscape:cx="389.90768"
     inkscape:cy="5.3052767"
     inkscape:document-units="px"
     inkscape:current-layer="layer1"
     showgrid="true"
     showguides="true"
     inkscape:guide-bbox="true"
     inkscape:snap-page="false"
     inkscape:object-nodes="false"
     inkscape:snap-bbox="true"
     inkscape:bbox-nodes="true"
     inkscape:snap-nodes="false">
    <inkscape:grid
       type="xygrid"
       id="grid2985"
       empspacing="5"
       visible="true"
       enabled="true"
       snapvisiblegridlinesonly="true" />
  </sodipodi:namedview>
  <metadata
     id="metadata7">
    <rdf:RDF>
      <cc:Work
         rdf:about="">
        <dc:format>image/svg+xml</dc:format>
        <dc:type
           rdf:resource="http://purl.org/dc/dcmitype/StillImage" />
        <dc:title />
      </cc:Work>
    </rdf:RDF>
  </metadata>
  <g
     inkscape:groupmode="layer"
     id="layer2"
     inkscape:label="Root"
     style="display:none">
    <rect
       style="color:#000000;fill:#000000;fill-opacity:0.50196078;fill-rule:nonzero;stroke:none;stroke-width:0.99999994;marker:none;visibility:visible;display:inline;overflow:visible;enable-background:accumulate"
       id="rect4208"
       width="400"
       height="400"
       x="0"
       y="0" />
  </g>
  <g
     inkscape:label="Sprite"
     inkscape:groupmode="layer"
     id="layer1"
     transform="translate(0,-652.36217)"
     style="display:inline">
    <g
       id="g4194"
       transform="translate(0,20)">
      <path
         transform="matrix(1,0,0,0.93333333,0,659.02884)"
         d="M 95,62.5 C 95,83.210678 74.852814,100 50,100 25.147186,100 5,83.210678 5,62.5 5,41.789322 25.147186,25 50,25 74.852814,25 95,41.789322 95,62.5 z"
         sodipodi:ry="37.5"
         sodipodi:rx="45"
         sodipodi:cy="62.5"
         sodipodi:cx="50"
         id="path4144"
         style="color:#000000;fill:url(#radialGradient4201);fill-opacity:1;fill-rule:nonzero;stroke:none;stroke-width:0.99999994;marker:none;visibility:visible;display:inline;overflow:visible;enable-background:accumulate"
         sodipodi:type="arc" />
      <path
         inkscape:connector-curvature="0"
         id="path2987"
         d="m 50,662.36217 -32,24 0,32 32,24 32,-24 0,-32 -32,-24 z"
         style="color:#000000;fill:#ffffff;fill-opacity:0.25098039;fill-rule:nonzero;stroke:none;stroke-width:0.99999994;marker:none;visibility:visible;display:inline;overflow:visible;enable-background:accumulate" />
      <path
         inkscape:connector-curvature="0"
         id="path3767"
         d="m 50,675.11217 -2.34375,1.75 2.34375,1.75 2.34375,-1.75 -2.34375,-1.75 z m -3.34375,2.5 -2.3125,1.75 2.3125,1.75 2.34375,-1.75 -2.34375,-1.75 z m 6.6875,0 -2.34375,1.75 2.34375,1.75 2.3125,-1.75 -2.3125,-1.75 z m -10,2.5 -2.34375,1.75 2.34375,1.75 2.3125,-1.75 -2.3125,-1.75 z m 6.65625,0 -2.34375,1.75 2.34375,1.75 2.34375,-1.75 -2.34375,-1.75 z m 6.65625,0 -2.3125,1.75 2.3125,1.75 2.34375,-1.75 -2.34375,-1.75 z m -16.65625,2.5 -2.34375,1.75 2.34375,1.75 2.34375,-1.75 -2.34375,-1.75 z m 6.65625,0 -2.3125,1.75 2.3125,1.75 2.34375,-1.75 -2.34375,-1.75 z m 6.6875,0 -2.34375,1.75 2.34375,1.75 2.3125,-1.75 -2.3125,-1.75 z m 6.65625,0 -2.34375,1.75 2.34375,1.75 2.34375,-1.75 -2.34375,-1.75 z m -23.34375,2.5 -2.3125,1.75 2.3125,1.75 2.34375,-1.75 -2.34375,-1.75 z m 6.6875,0 -2.34375,1.75 2.34375,1.75 2.3125,-1.75 -2.3125,-1.75 z m 6.65625,0 -2.34375,1.75 2.34375,1.75 2.34375,-1.75 -2.34375,-1.75 z m 6.65625,0 -2.3125,1.75 2.3125,1.75 2.34375,-1.75 -2.34375,-1.75 z m 6.6875,0 -2.34375,1.75 2.34375,1.75 2.3125,-1.75 -2.3125,-1.75 z m -30,2.5 -2.34375,1.75 2.34375,1.75 2.3125,-1.75 -2.3125,-1.75 z m 6.65625,0 -2.34375,1.75 2.34375,1.75 2.34375,-1.75 -2.34375,-1.75 z m 6.65625,0 -2.3125,1.75 2.3125,1.75 2.34375,-1.75 -2.34375,-1.75 z m 6.6875,0 -2.34375,1.75 2.34375,1.75 2.3125,-1.75 -2.3125,-1.75 z m 6.65625,0 -2.34375,1.75 2.34375,1.75 2.34375,-1.75 -2.34375,-1.75 z m 6.65625,0 -2.3125,1.75 2.3125,1.75 2.34375,-1.75 -2.34375,-1.75 z m -36.65625,2.5 -2.34375,1.75 2.34375,1.75 2.34375,-1.75 -2.34375,-1.75 z m 6.65625,0 -2.3125,1.75 2.3125,1.75 2.34375,-1.75 -2.34375,-1.75 z m 6.6875,0 -2.34375,1.75 2.34375,1.75 2.3125,-1.75 -2.3125,-1.75 z m 6.65625,0 -2.34375,1.75 2.34375,1.75 2.34375,-1.75 -2.34375,-1.75 z m 6.65625,0 -2.3125,1.75 2.3125,1.75 2.34375,-1.75 -2.34375,-1.75 z m 6.6875,0 -2.34375,1.75 2.34375,1.75 2.3125,-1.75 -2.3125,-1.75 z m 6.65625,0 -2.34375,1.75 2.34375,1.75 2.34375,-1.75 -2.34375,-1.75 z m -36.65625,2.5 -2.34375,1.75 2.34375,1.75 2.3125,-1.75 -2.3125,-1.75 z m 6.65625,0 -2.34375,1.75 2.34375,1.75 2.34375,-1.75 -2.34375,-1.75 z m 6.65625,0 -2.3125,1.75 2.3125,1.75 2.34375,-1.75 -2.34375,-1.75 z m 6.6875,0 -2.34375,1.75 2.34375,1.75 2.3125,-1.75 -2.3125,-1.75 z m 6.65625,0 -2.34375,1.75 2.34375,1.75 2.34375,-1.75 -2.34375,-1.75 z m 6.65625,0 -2.3125,1.75 2.3125,1.75 2.34375,-1.75 -2.34375,-1.75 z m -30,2.5 -2.3125,1.75 2.3125,1.75 2.34375,-1.75 -2.34375,-1.75 z m 6.6875,0 -2.34375,1.75 2.34375,1.75 2.3125,-1.75 -2.3125,-1.75 z m 6.65625,0 -2.34375,1.75 2.34375,1.75 2.34375,-1.75 -2.34375,-1.75 z m 6.65625,0 -2.3125,1.75 2.3125,1.75 2.34375,-1.75 -2.34375,-1.75 z m 6.6875,0 -2.34375,1.75 2.34375,1.75 2.3125,-1.75 -2.3125,-1.75 z m -23.34375,2.5 -2.34375,1.75 2.34375,1.75 2.34375,-1.75 -2.34375,-1.75 z m 6.65625,0 -2.3125,1.75 2.3125,1.75 2.34375,-1.75 -2.34375,-1.75 z m 6.6875,0 -2.34375,1.75 2.34375,1.75 2.3125,-1.75 -2.3125,-1.75 z m 6.65625,0 -2.34375,1.75 2.34375,1.75 2.34375,-1.75 -2.34375,-1.75 z m -26.65625,2 -2.34375,1.75 2.34375,1.75 2.3125,-1.75 -2.3125,-1.75 z m 33.3125,0 -2.3125,1.75 2.3125,1.75 2.34375,-1.75 -2.34375,-1.75 z m -23.3125,0.5 -2.34375,1.75 2.34375,1.75 2.3125,-1.75 -2.3125,-1.75 z m 6.65625,0 -2.34375,1.75 2.34375,1.75 2.34375,-1.75 -2.34375,-1.75 z m 6.65625,0 -2.3125,1.75 2.3125,1.75 2.34375,-1.75 -2.34375,-1.75 z m -26.65625,2 -2.34375,1.75 2.34375,1.75 2.34375,-1.75 -2.34375,-1.75 z m 6.65625,0 -2.3125,1.75 2.3125,1.75 2.34375,-1.75 -2.34375,-1.75 z m 26.6875,0 -2.34375,1.75 2.34375,1.75 2.3125,-1.75 -2.3125,-1.75 z m 6.65625,0 -2.34375,1.75 2.34375,1.75 2.34375,-1.75 -2.34375,-1.75 z m -23.34375,0.5 -2.3125,1.75 2.3125,1.75 2.34375,-1.75 -2.34375,-1.75 z m 6.6875,0 -2.34375,1.75 2.34375,1.75 2.3125,-1.75 -2.3125,-1.75 z m -20,2 -2.34375,1.75 2.34375,1.75 2.3125,-1.75 -2.3125,-1.75 z m 6.65625,0 -2.34375,1.75 2.34375,1.75 2.34375,-1.75 -2.34375,-1.75 z m 20,0 -2.34375,1.75 2.34375,1.75 2.34375,-1.75 -2.34375,-1.75 z m 6.65625,0 -2.3125,1.75 2.3125,1.75 2.34375,-1.75 -2.34375,-1.75 z m -16.65625,0.5 -2.34375,1.75 2.34375,1.75 2.34375,-1.75 -2.34375,-1.75 z m -13.34375,2 -2.3125,1.75 2.3125,1.75 2.34375,-1.75 -2.34375,-1.75 z m 6.6875,0 -2.34375,1.75 2.34375,1.75 2.3125,-1.75 -2.3125,-1.75 z m 13.3125,0 -2.3125,1.75 2.3125,1.75 2.34375,-1.75 -2.34375,-1.75 z m 6.6875,0 -2.34375,1.75 2.34375,1.75 2.3125,-1.75 -2.3125,-1.75 z m -23.34375,2.5 -2.34375,1.75 2.34375,1.75 2.34375,-1.75 -2.34375,-1.75 z m 6.65625,0 -2.3125,1.75 2.3125,1.75 2.34375,-1.75 -2.34375,-1.75 z m 6.6875,0 -2.34375,1.75 2.34375,1.75 2.3125,-1.75 -2.3125,-1.75 z m 6.65625,0 -2.34375,1.75 2.34375,1.75 2.34375,-1.75 -2.34375,-1.75 z m -16.65625,2.5 -2.34375,1.75 2.34375,1.75 2.3125,-1.75 -2.3125,-1.75 z m 6.65625,0 -2.34375,1.75 2.34375,1.75 2.34375,-1.75 -2.34375,-1.75 z m 6.65625,0 -2.3125,1.75 2.3125,1.75 2.34375,-1.75 -2.34375,-1.75 z m -23.3125,0.5 -2.34375,1.75 2.34375,1.75 2.3125,-1.75 -2.3125,-1.75 z m 33.3125,0 -2.3125,1.75 2.3125,1.75 2.34375,-1.75 -2.34375,-1.75 z m -20,2 -2.3125,1.75 2.3125,1.75 2.34375,-1.75 -2.34375,-1.75 z m 6.6875,0 -2.34375,1.75 2.34375,1.75 2.3125,-1.75 -2.3125,-1.75 z m -23.34375,0.5 -2.34375,1.75 2.34375,1.75 2.34375,-1.75 -2.34375,-1.75 z m 6.65625,0 -2.3125,1.75 2.3125,1.75 2.34375,-1.75 -2.34375,-1.75 z m 26.6875,0 -2.34375,1.75 2.34375,1.75 2.3125,-1.75 -2.3125,-1.75 z m 6.65625,0 -2.34375,1.75 2.34375,1.75 2.34375,-1.75 -2.34375,-1.75 z m -20,2 -2.34375,1.75 2.34375,1.75 2.34375,-1.75 -2.34375,-1.75 z m -16.65625,0.5 -2.34375,1.75 2.34375,1.75 2.3125,-1.75 -2.3125,-1.75 z m 6.65625,0 -2.34375,1.75 2.34375,1.75 2.34375,-1.75 -2.34375,-1.75 z m 20,0 -2.34375,1.75 2.34375,1.75 2.34375,-1.75 -2.34375,-1.75 z m 6.65625,0 -2.3125,1.75 2.3125,1.75 2.34375,-1.75 -2.34375,-1.75 z m -30,2.5 -2.3125,1.75 2.3125,1.75 2.34375,-1.75 -2.34375,-1.75 z m 6.6875,0 -2.34375,1.75 2.34375,1.75 2.3125,-1.75 -2.3125,-1.75 z m 13.3125,0 -2.3125,1.75 2.3125,1.75 2.34375,-1.75 -2.34375,-1.75 z m 6.6875,0 -2.34375,1.75 2.34375,1.75 2.3125,-1.75 -2.3125,-1.75 z m -23.34375,2.5 -2.34375,1.75 2.34375,1.75 2.34375,-1.75 -2.34375,-1.75 z m 6.65625,0 -2.3125,1.75 2.3125,1.75 2.34375,-1.75 -2.34375,-1.75 z m 6.6875,0 -2.34375,1.75 2.34375,1.75 2.3125,-1.75 -2.3125,-1.75 z m 6.65625,0 -2.34375,1.75 2.34375,1.75 2.34375,-1.75 -2.34375,-1.75 z m -16.65625,2.5 -2.34375,1.75 2.34375,1.75 2.3125,-1.75 -2.3125,-1.75 z m 6.65625,0 -2.34375,1.75 2.34375,1.75 2.34375,-1.75 -2.34375,-1.75 z m 6.65625,0 -2.3125,1.75 2.3125,1.75 2.34375,-1.75 -2.34375,-1.75 z m -10,2.5 -2.3125,1.75 2.3125,1.75 2.34375,-1.75 -2.34375,-1.75 z m 6.6875,0 -2.34375,1.75 2.34375,1.75 2.3125,-1.75 -2.3125,-1.75 z m -3.34375,2.5 -2.34375,1.75 2.34375,1.75 2.34375,-1.75 -2.34375,-1.75 z"
         style="color:#000000;fill:#000000;fill-opacity:0.50196078;fill-rule:nonzero;stroke:none;stroke-width:0.99999994;marker:none;visibility:visible;display:inline;overflow:visible;enable-background:accumulate" />
      <path
         inkscape:connector-curvature="0"
         style="color:#000000;fill:url(#radialGradient4203);fill-opacity:1;fill-rule:nonzero;stroke:none;stroke-width:0.99999994;marker:none;visibility:visible;display:inline;overflow:visible;enable-background:accumulate"
         d="m 50,710.36217 -32,-24 32,-24 32,24 -32,24 z"
         id="path4130" />
      <path
         id="path4140"
         d="m 50,742.36217 -32,-24 32,-24 32,24 -32,24 z"
         style="color:#000000;fill:url(#radialGradient4205);fill-opacity:1;fill-rule:nonzero;stroke:none;stroke-width:0.99999994;marker:none;visibility:visible;display:inline;overflow:visible;enable-background:accumulate"
         inkscape:connector-curvature="0" />
    </g>
    <path
       style="display:inline;color:#000000;fill:#ffffff;fill-opacity:1;fill-rule:nonzero;stroke:none;stroke-width:0.99999994000000003;marker:none;visibility:visible;overflow:visible;enable-background:accumulate"
       d="m 388.89065,340 c 0,0 -2.7813,2.22395 -2.7813,3.89063 0,2.22222 1.11637,2.22394 1.67187,3.89062 0.55556,1.66667 -0.56073,2.22569 -1.67187,2.78124 l -2.7812,1.10939 1.10935,1.10937 -3.32814,1.65625 1.10936,1.125 -2.21872,2.21874 4.4375,1.10939 0.92185,-1.85938 L 385,359.43749 389.71871,360 390,357.78124 390.28122,360 395,359.43749 l -0.5625,-2.21875 1.125,2.21875 L 400,358.32812 396.9375,355 l 1.39064,-0.28126 -1.9375,-2.21874 1.39058,-0.28126 -1.67186,-1.65624 c 0,0 0.19707,-1.00758 -1.67186,-3.34376 -2.22221,-2.77777 -5.00001,-2.22221 -5.00001,-4.99999 0,-1.11111 1.67187,-2.21875 1.67187,-2.21875 l -2.21871,0 z m -0.96879,2.09375 C 387.78122,342.3047 387.5,342.875 387.5,344 c 0,1.5 2.5,1.5 2.5,4.5 0,2.49999 -2,3.49999 -2,3.49999 0,0 1.25,-1.5 1.25,-3.49999 0,-2.5 -2.25,-2.5 -2.25,-4.5 0,-0.86878 0.72378,-1.6932 0.92186,-1.90625 z M 390,346 c 0,0 2.5,1 2.5,4 0,2.5 -2,3.99999 -2,3.99999 0,0 1,-2 1,-3.99999 0,-2.5 -1.5,-4 -1.5,-4 z"
       id="path5994"
       inkscape:connector-curvature="0"
       transform="translate(0,652.36217)" />
    <g
       transform="translate(0,-3e-5)"
       style="display:inline"
       id="g4033">
      <path
         sodipodi:nodetypes="ccc"
         inkscape:connector-curvature="0"
         id="path3835"
         d="m 390,1012.3622 10,20 -10,20"
         style="opacity:0.75;color:#000000;fill:#000000;fill-opacity:0.25098039;fill-rule:nonzero;stroke:none;stroke-width:1.5;marker:none;visibility:visible;display:inline;overflow:visible;enable-background:accumulate" />
      <rect
         y="1012.3622"
         x="0"
         height="40"
         width="390"
         id="rect3064"
         style="opacity:0.75;color:#000000;fill:#000000;fill-opacity:0.25098039;fill-rule:nonzero;stroke:none;stroke-width:1.5;marker:none;visibility:visible;display:inline;overflow:visible;enable-background:accumulate" />
      <path
         sodipodi:nodetypes="cccccc"
         inkscape:connector-curvature="0"
         id="path4217"
         d="m 390,1052.3622 10,-20 -10,-20 -1,0 10,20 -10,20"
         style="opacity:0.8;color:#000000;fill:#ffffff;fill-opacity:0.25098039;fill-rule:nonzero;stroke:none;stroke-width:0;marker:none;visibility:visible;display:inline;overflow:visible;enable-background:accumulate" />
    </g>
  </g>
  <path
     style="color:#000000;fill:#ffffff;fill-opacity:0.75294118;fill-rule:nonzero;stroke:none;stroke-width:0.99999994;marker:none;visibility:visible;display:inline;overflow:visible;enable-background:accumulate"
     d="m 9.5,6 -1,1 2,2 -4.5,0 0,2 4.5,0 -2,2 1,1 4,-4 z"
     id="path4212"
     inkscape:connector-curvature="0"
     sodipodi:nodetypes="cccccccccc" />
  <path
     style="color:#000000;fill:#ffffff;fill-opacity:0.75294118;fill-rule:nonzero;stroke:none;stroke-width:0.99999994;marker:none;visibility:visible;display:inline;overflow:visible;enable-background:accumulate"
     d="m 45,4 0,12 10,0 0,-9 -2.5,0 0,-3 -7.5,0 z m 8,0 0,2 2,0 -2,-2 z m -4,3 2,0 0,4 2,0 -3,3 -3,-3 2,0 0,-4 z"
     id="path4219"
     inkscape:connector-curvature="0" />
  <path
     style="color:#000000;fill:#ffffff;fill-opacity:0.75294118;fill-rule:nonzero;stroke:none;stroke-width:0.99999994;marker:none;visibility:visible;display:inline;overflow:visible;enable-background:accumulate"
     d="M 29 4 C 26.23 4 24 6.23 24 9 L 24 11 C 24 13.77 26.23 16 29 16 L 31 16 C 33.77 16 36 13.77 36 11 L 36 9 C 36 6.23 33.77 4 31 4 L 29 4 z M 29.5 6 L 30.5 6 C 31.054 6 31.5 6.446 31.5 7 C 31.5 7.554 31.054 8 30.5 8 L 29.5 8 C 28.946 8 28.5 7.554 28.5 7 C 28.5 6.446 28.946 6 29.5 6 z M 29 9 L 31 9 L 31 13 L 32 14 L 28 14 L 29 13 L 29 10 L 28 10 L 29 9 z "
     id="rect4232" />
  <path
     style="color:#000000;fill:#ffffff;fill-opacity:0.75294118;fill-rule:nonzero;stroke:none;stroke-width:0.99999994;marker:none;visibility:visible;display:inline;overflow:visible;enable-background:accumulate"
     d="M 66.5,5 65,6.5 68.5,10 65,13.5 66.5,15 70,11.5 73.5,15 75,13.5 71.5,10 75,6.5 73.5,5 70,8.5 z"
     id="path3007"
     inkscape:connector-curvature="0"
     sodipodi:nodetypes="ccccccccccccc" />
</svg>
